<svg id="Capa_1" data-name="Capa 1" xmlns="http://www.w3.org/2000/svg" width="10cm" height="10cm" viewBox="0 0 283.46 283.46">
  <defs>
    <style>
      .cls-1 {
        fill-rule: evenodd;
      }
    </style>
  </defs>
  <g>
    <path class="cls-1" d="M216.2,48.22A1.92,1.92,0,0,1,215,47.8a116.3,116.3,0,0,0-59.33-24.58,2,2,0,0,1-1.73-2.17,1.89,1.89,0,0,1,2.17-1.72,120.14,120.14,0,0,1,61.32,25.41,2,2,0,0,1-1.21,3.48M46.7,71.1A2,2,0,0,1,45.12,68a121.36,121.36,0,0,1,97.34-49.43h.28a2.06,2.06,0,0,1,2,2,1.92,1.92,0,0,1-2.11,1.92h-.2A117.46,117.46,0,0,0,48.27,70.3,1.94,1.94,0,0,1,46.7,71.1ZM37,86.71a2,2,0,0,1-.91-.22,1.94,1.94,0,0,1-.82-2.63C36.08,82.22,37,80.6,37.9,79A2,2,0,0,1,41.29,81q-1.35,2.33-2.59,4.7A1.94,1.94,0,0,1,37,86.71Zm38.29,17.84a1.84,1.84,0,0,1-.93-.24,1.94,1.94,0,0,1-.79-2.65C87,76.9,114.05,60.91,142.46,60.91A79.66,79.66,0,0,1,197,83a2,2,0,0,1-2.71,2.83,75.64,75.64,0,0,0-51.81-21c-27,0-52.71,15.19-65.48,38.7A1.94,1.94,0,0,1,75.26,104.55ZM259.62,161.1l-.33,0a2,2,0,0,1-1.6-2.25A116.56,116.56,0,0,0,221.55,53.43a2,2,0,0,1,2.65-2.88,120.42,120.42,0,0,1,37.34,108.92A1.94,1.94,0,0,1,259.62,161.1Zm-11.29,34.06a1.88,1.88,0,0,1-.89-.21,2,2,0,0,1-.85-2.64,116,116,0,0,0,9.32-25,2,2,0,0,1,2.37-1.44,2,2,0,0,1,1.44,2.37,120.39,120.39,0,0,1-9.65,25.85A2,2,0,0,1,248.33,195.16Zm-9.07,14.91a1.93,1.93,0,0,1-1.13-.37,2,2,0,0,1-.46-2.73c2-2.82,3.92-5.76,5.67-8.74a1.93,1.93,0,0,1,2.67-.69,2,2,0,0,1,.7,2.68c-1.8,3.07-3.77,6.11-5.85,9A2,2,0,0,1,239.26,210.07Zm-96.8,7.67a78.53,78.53,0,0,1-52.39-20.22,2,2,0,0,1-.13-2.76,2,2,0,0,1,2.77-.12,74.3,74.3,0,0,0,106.21-6.71,2,2,0,0,1,3,2.55A79.21,79.21,0,0,1,142.46,217.74ZM64,230.34a2,2,0,0,1-1.3-.49,120.88,120.88,0,0,1-41-90.52A119.48,119.48,0,0,1,31.55,91.6a2,2,0,0,1,3.59,1.56,115.63,115.63,0,0,0-9.55,46.17,117,117,0,0,0,39.65,87.58,2,2,0,0,1,.17,2.76A1.9,1.9,0,0,1,64,230.34ZM142.46,30.8A108.53,108.53,0,1,0,251,139.33,108.65,108.65,0,0,0,142.46,30.8Zm0,221A112.44,112.44,0,1,1,254.9,139.33,112.56,112.56,0,0,1,142.46,251.77Zm-23.86,5.92a1.81,1.81,0,0,1-.4,0A119.46,119.46,0,0,1,73,238a2,2,0,0,1,2.27-3.19,115.64,115.64,0,0,0,43.74,19,2,2,0,0,1-.39,3.87Zm23.86,2.42a122.75,122.75,0,0,1-13.45-.75,2,2,0,0,1-1.73-2.16,1.87,1.87,0,0,1,2.16-1.73,120,120,0,0,0,13,.73,117,117,0,0,0,87.25-39.26,2,2,0,0,1,2.92,2.6A121,121,0,0,1,142.46,260.11Z"/>
    <polyline class="cls-1" points="166.94 239.31 159.16 235.83 153.45 242.13 154.35 233.67 146.59 230.19 154.92 228.44 155.82 219.97 160.07 227.35 168.4 225.6 162.69 231.91"/>
    <polyline class="cls-1" points="136.89 242.12 131.1 235.88 123.37 239.45 127.52 232.01 121.73 225.77 130.08 227.42 134.23 219.98 135.25 228.43 143.6 230.08 135.88 233.66"/>
    <polyline class="cls-1" points="110.14 235.66 105.2 228.72 97.08 231.26 102.15 224.42 97.22 217.48 105.29 220.2 110.37 213.36 110.28 221.87 118.35 224.59 110.23 227.14"/>
    <polyline class="cls-1" points="192.7 229.98 184.37 228.22 180.12 235.59 179.21 227.13 170.88 225.37 178.66 221.9 177.76 213.42 183.47 219.75 191.24 216.27 186.99 223.65"/>
    <polyline class="cls-1" points="216.03 215.86 207.52 215.55 204.59 223.54 202.25 215.35 193.74 215.04 200.81 210.29 198.47 202.1 205.17 207.35 212.24 202.6 209.32 210.6"/>
    <g>
      <path d="M68.52,68.14l10,9.85,3.94-4,2.82,2.78L78,84.09,65.23,71.46Z"/>
      <path d="M79.25,58.68l11.22,14-3.65,2.92L75.6,61.6Z"/>
      <path d="M97.94,53.77a5,5,0,0,0-4.46.35A5,5,0,0,0,92,55.45,4.71,4.71,0,0,0,91.16,59a5.4,5.4,0,0,0,2,3.37,4.74,4.74,0,0,0,3.55.94,4.63,4.63,0,0,0,1.83-.65A5.39,5.39,0,0,0,101,58.94l2.84,4.75-.32.39a15.08,15.08,0,0,1-1.43,1.51,9.62,9.62,0,0,1-1.49,1.09,9.13,9.13,0,0,1-3.42,1.23,9.23,9.23,0,0,1-3.59-.16,9.66,9.66,0,0,1-3.35-1.53,9,9,0,0,1-2.63-2.88,9.2,9.2,0,0,1-1.29-3.66,9.5,9.5,0,0,1,4.57-9.3,9.83,9.83,0,0,1,1.92-.89A13.45,13.45,0,0,1,95.08,49Z"/>
      <path d="M102.5,54.56a9.47,9.47,0,0,1-.48-3.77,9.27,9.27,0,0,1,3.32-6.42A11.39,11.39,0,0,1,113,41.82,9.53,9.53,0,0,1,121.87,52a9.22,9.22,0,0,1-1,3.51,9.36,9.36,0,0,1-2.36,2.92,10.68,10.68,0,0,1-3.56,2,11,11,0,0,1-4,.59,9.48,9.48,0,0,1-3.62-.92,9.14,9.14,0,0,1-2.9-2.21A9.43,9.43,0,0,1,102.5,54.56ZM107.14,53a4.69,4.69,0,0,0,1,1.74,5.05,5.05,0,0,0,1.54,1.15,5.19,5.19,0,0,0,6.75-2.26,4.9,4.9,0,0,0,.55-1.85A5,5,0,0,0,115.73,48a4.69,4.69,0,0,0-1.55-1.14,5.1,5.1,0,0,0-3.82-.2,5.16,5.16,0,0,0-1.73,1,4.75,4.75,0,0,0-1.19,1.49A4.84,4.84,0,0,0,106.9,51,4.68,4.68,0,0,0,107.14,53Z"/>
      <path d="M141.24,55.12l-5.79.6-5.15-6.41.72,6.88-4.65.49L124.5,38.8l7.23-.76a7.32,7.32,0,0,1,2.65.16,4.93,4.93,0,0,1,3.24,2.65,6.29,6.29,0,0,1,.59,2.1,5.28,5.28,0,0,1-.64,3.41,4.94,4.94,0,0,1-2.72,2ZM130,46.3l.88-.09a3.45,3.45,0,0,0,2-.79,2.21,2.21,0,0,0-.34-3.27,3.38,3.38,0,0,0-2.17-.35l-.88.09Z"/>
      <path d="M153.6,42.05l-5.54-.35-.19,3,5.23.34L152.85,49l-5.24-.34-.19,3.1,5.54.35L152.71,56l-10.21-.65,1.15-17.94,10.21.65Z"/>
      <path d="M169.92,59.79l-5.66-1.34-2.73-7.76-1.61,6.72-4.54-1.08,4.16-17.49,7.08,1.69a7.13,7.13,0,0,1,2.45,1,5.19,5.19,0,0,1,1.51,1.6,5,5,0,0,1,.66,2,6,6,0,0,1-.14,2.18,5.19,5.19,0,0,1-1.73,3,5,5,0,0,1-3.24,1Zm-7.69-12,.86.21a3.39,3.39,0,0,0,2.19-.07,2.2,2.2,0,0,0,.76-3.2,3.4,3.4,0,0,0-1.93-1l-.86-.2Z"/>
      <path d="M182,45.6l-6.6,16.73-4.34-1.72,6.6-16.72Z"/>
      <path d="M189.52,66.22l-5.76-3.38L181.26,65,177,62.46l15-12,4.4,2.59-3.2,19-4.3-2.52Zm.73-3.7,1.22-6.22-4.84,4.1Z"/>
    </g>
    <g>
      <path d="M84.91,129.11a9.67,9.67,0,0,0-8.34-2.32A9.43,9.43,0,0,0,73,128.22a9.08,9.08,0,0,0-2.56,2.53,9.23,9.23,0,0,0-1.36,3.34,10.46,10.46,0,0,0,1.42,7.49A9.44,9.44,0,0,0,73,144.21a9.29,9.29,0,0,0,7.08,1.48,10.5,10.5,0,0,0,7-5.09l2,10.53-.85.49a25.63,25.63,0,0,1-3.61,1.79,18.33,18.33,0,0,1-3.43,1,18.15,18.15,0,0,1-13.48-2.74,19,19,0,0,1-5.07-5,18,18,0,0,1-2.88-7,17.75,17.75,0,0,1,.11-7.52,18.11,18.11,0,0,1,2.87-6.43,18.5,18.5,0,0,1,5-4.81,18.1,18.1,0,0,1,6.6-2.64,18.87,18.87,0,0,1,4.1-.33,24.13,24.13,0,0,1,4.41.55Z"/>
      <path d="M109.28,120.44l-10.58,2,1.09,5.72,10-1.89,1.43,7.53-10,1.9,1.12,5.9,10.58-2,1.43,7.54-19.48,3.7-6.5-34.24,19.48-3.69Z"/>
      <path d="M149.22,140.53l-11.08,2.1-11-11.56,2.5,13.17-8.9,1.69-6.5-34.24,13.85-2.62a13.65,13.65,0,0,1,5.15-.11,9.92,9.92,0,0,1,4,1.62,9.79,9.79,0,0,1,2.72,3,11.8,11.8,0,0,1,1.48,4,10.17,10.17,0,0,1-.68,6.69,9.63,9.63,0,0,1-4.94,4.35Zm-23.17-15.22,1.68-.32a6.62,6.62,0,0,0,3.84-1.86,4.26,4.26,0,0,0-1.19-6.26,6.62,6.62,0,0,0-4.25-.33l-1.68.32Z"/>
      <path d="M146.44,105.59l13.17-2.5a15.86,15.86,0,0,1,6.83.16,18.23,18.23,0,0,1,6.07,2.73,17.82,17.82,0,0,1,4.64,4.76,17.16,17.16,0,0,1,2.49,13,17.72,17.72,0,0,1-2.55,6.16,18,18,0,0,1-4.64,4.78,15.78,15.78,0,0,1-6.34,2.66l-13.17,2.5Zm14,25,2-.38a11.53,11.53,0,0,0,4-1.51,9.19,9.19,0,0,0,2.68-2.58,8.79,8.79,0,0,0,1.34-3.38,11.32,11.32,0,0,0-.07-4,10.68,10.68,0,0,0-1.41-3.68,8.68,8.68,0,0,0-6-4.09,10.93,10.93,0,0,0-4.22,0l-2,.38Z"/>
      <path d="M207,123.4l-12.71,2.41-.91,6.34-9.5,1.8,6.54-36.71,9.72-1.84,19.52,31.76-9.49,1.8Zm-3.64-6.32-6.16-10.64-1.83,12.16Z"/>
    </g>
    <g>
      <path d="M73.35,166.62l-10.58,2,1.08,5.72,10-1.89L75.27,180l-10,1.89,1.12,5.9,10.58-2,1.43,7.53L58.94,197l-6.5-34.24,19.48-3.69Z"/>
      <path d="M105.16,166.46,118,164l-2.5-13.21,8.9-1.69,6.49,34.24-8.9,1.69-2.68-14.13-12.85,2.44,2.68,14.12-8.9,1.69-6.49-34.23,8.9-1.69Z"/>
      <path d="M140.48,146.07,147,180.31l-8.9,1.69-6.49-34.24Zm22.75-4.31,4.9,25.83a21.72,21.72,0,0,1,.36,2.8,9.15,9.15,0,0,1-.1,2.28,10.34,10.34,0,0,1-1.91,4.08,11.42,11.42,0,0,1-7.35,4.4q-5.49,1-9.9-3.34l4.68-7.05a4.9,4.9,0,0,0,1.47,2.26,2.44,2.44,0,0,0,2.07.55c1.67-.32,2.25-1.79,1.75-4.43l-4.87-25.7Z"/>
      <path d="M172.1,157.81a18.31,18.31,0,0,1,.06-7.38A17.92,17.92,0,0,1,180.22,139a22.12,22.12,0,0,1,15.28-2.9,18.23,18.23,0,0,1,6.74,2.7,17.8,17.8,0,0,1,5,5A19,19,0,0,1,210,158a17.91,17.91,0,0,1-2.84,6.49,18.26,18.26,0,0,1-5.29,5,22,22,0,0,1-15.28,2.9,17.8,17.8,0,0,1-11.69-7.71A18.34,18.34,0,0,1,172.1,157.81Zm9.31-1.77a9.34,9.34,0,0,0,1.49,3.62,9.65,9.65,0,0,0,6.1,4,10.28,10.28,0,0,0,3.83,0,10.11,10.11,0,0,0,3.57-1.41,9.87,9.87,0,0,0,2.71-2.56,9.49,9.49,0,0,0,1.54-3.39,9.22,9.22,0,0,0,.06-3.92,9.39,9.39,0,0,0-4.17-6.22,10,10,0,0,0-7.29-1.39,10,10,0,0,0-3.57,1.41,9.63,9.63,0,0,0-2.69,2.55,9.78,9.78,0,0,0-1.52,3.4A9.17,9.17,0,0,0,181.41,156Z"/>
      <path d="M232.86,137.62a11.16,11.16,0,0,0-3.24-1.19,7.78,7.78,0,0,0-2.92,0,4.62,4.62,0,0,0-2.66,1.36,2.62,2.62,0,0,0-.69,2.34,2.16,2.16,0,0,0,.83,1.39,4.63,4.63,0,0,0,1.63.75,11.74,11.74,0,0,0,2.14.37c.78.07,1.56.16,2.33.27a13.82,13.82,0,0,1,7.11,2.67,9.73,9.73,0,0,1,3.23,6,12.59,12.59,0,0,1,0,4.93,10.15,10.15,0,0,1-1.9,4.15,12.11,12.11,0,0,1-3.73,3.15,17.59,17.59,0,0,1-5.45,1.91,21,21,0,0,1-12.76-1.58l2.45-7.9A15.83,15.83,0,0,0,223.7,158a9.64,9.64,0,0,0,4,.13,4.69,4.69,0,0,0,3.06-1.62,3.07,3.07,0,0,0,.64-2.47,3.14,3.14,0,0,0-.53-1.29,3,3,0,0,0-1.1-.87,7.33,7.33,0,0,0-1.83-.57c-.73-.14-1.62-.29-2.65-.44-1.22-.15-2.42-.33-3.61-.56a10.89,10.89,0,0,1-3.28-1.19,8.3,8.3,0,0,1-2.61-2.35,9.81,9.81,0,0,1-1.59-4.05,12.37,12.37,0,0,1,0-4.77,10.61,10.61,0,0,1,1.69-4,11,11,0,0,1,3.29-3,14.61,14.61,0,0,1,4.77-1.75,22,22,0,0,1,5.45-.3,23.77,23.77,0,0,1,5.7,1.06Z"/>
    </g>
  </g>
</svg>
