<svg id="PATTERN" xmlns="http://www.w3.org/2000/svg" viewBox="0 0 3648 3600"><defs><style>.cls-1{fill-rule:evenodd;}</style></defs><path class="cls-1" d="M2788,573.11a26,26,0,0,1-16.38-5.73c-229.87-182.74-505-296.67-795.46-329.58a26.28,26.28,0,0,1-23.15-29c1.65-14.46,14.86-26,29.12-23.09,300.18,33.94,584.5,151.82,822.19,340.69A26.21,26.21,0,0,1,2788,573.11M515.38,879.76a25.89,25.89,0,0,1-15.53-5.11,26.3,26.3,0,0,1-5.63-36.71c305.22-415,793.13-662.66,1305.13-662.66,1.19,0,3.59.1,3.79.1,14.32.3,27.26,12.21,27.12,26.53-.19,15.56-12.4,26.88-28.26,25.71a22.87,22.87,0,0,1-2.65.1c-495.35,0-967.48,239.74-1262.84,641.36a26.06,26.06,0,0,1-21.13,10.68M384.93,1089.12a25.78,25.78,0,0,1-12.15-2.95,26.16,26.16,0,0,1-11.1-35.33c11.37-22,23.35-43.62,35.75-65a26.22,26.22,0,1,1,45.4,26.24c-12,20.79-23.57,41.82-34.65,62.92a26.1,26.1,0,0,1-23.25,14.13m513.42,239.21a26.2,26.2,0,0,1-23.05-38.71c180.3-332,543.07-546.39,924.05-546.39,268.28,0,534.69,107.74,731,295.57a26.24,26.24,0,0,1-36.29,37.92c-186.6-178.66-439.82-281-694.69-281-362.07,0-706.7,203.66-877.95,518.9a26.11,26.11,0,0,1-23,13.72m2471.82,758.25a20.57,20.57,0,0,1-4.37-.46,26.08,26.08,0,0,1-21.43-30.18,1572.7,1572.7,0,0,0,21.89-261.28c0-435.38-184.55-855.27-506.49-1151.82a26.24,26.24,0,0,1,35.56-38.59c332.69,306.55,523.4,740.41,523.4,1190.41a1613.68,1613.68,0,0,1-22.75,270,26.12,26.12,0,0,1-25.81,21.89m-151.31,456.67a25.56,25.56,0,0,1-12-2.92,26.13,26.13,0,0,1-11.4-35.29,1555.88,1555.88,0,0,0,125-335.14c3.46-14.06,18.12-22.55,31.79-19.3a26.28,26.28,0,0,1,19.24,31.77,1614.71,1614.71,0,0,1-129.3,346.56,26.38,26.38,0,0,1-23.35,14.32m-121.6,199.81a25.54,25.54,0,0,1-15.19-4.91,26.27,26.27,0,0,1-6.11-36.61c26.93-37.81,52.48-77.22,75.9-117.16a26.26,26.26,0,0,1,45.24,26.68c-24.15,41.12-50.55,81.85-78.41,121a26.39,26.39,0,0,1-21.43,11M1799.35,2846c-257.72,0-513.78-98.78-702.41-271.13a26.18,26.18,0,1,1,35.31-38.67c179.18,163.52,422.32,257.32,667.1,257.32,287.71,0,570.65-129.75,757-347.22,9.62-10.87,26.08-12.33,36.95-2.78a26.21,26.21,0,0,1,2.92,37C2400,2709.37,2102.12,2846,1799.35,2846M746.67,3014.86a26.27,26.27,0,0,1-17.38-6.57c-349.14-308.21-549.35-750.62-549.35-1213.63,0-221.8,44.51-437,132.27-639.94a26.27,26.27,0,0,1,48.21,20.91c-84.95,196.16-128,404.49-128,619,0,448,193.78,876,531.6,1174.28a26.21,26.21,0,0,1,2.29,37,25.91,25.91,0,0,1-19.63,8.9M1799.35,339.53c-802.29,0-1455.06,652.77-1455.06,1455.13S997.06,3249.75,1799.35,3249.75,3254.48,2597,3254.48,1794.66,2601.71,339.53,1799.35,339.53m0,2962.69c-831.22,0-1507.53-676.3-1507.53-1507.56S968.13,287.09,1799.35,287.09,3307,963.38,3307,1794.66,2630.64,3302.22,1799.35,3302.22m-319.88,79.41a24,24,0,0,1-5.37-.52c-218.73-44.84-422.7-133.48-606.3-263.23A26.26,26.26,0,1,1,898.15,3075c177.58,125.51,374.94,211.22,586.49,254.74a26.19,26.19,0,0,1-5.17,51.87M1799.35,3414a1628.79,1628.79,0,0,1-180.3-10.09,26.3,26.3,0,0,1-23.22-28.92c1.66-14.46,14.92-26.8,29-23.15a1609,1609,0,0,0,174.53,9.75c445.4,0,871.75-191.85,1169.88-526.4A26.17,26.17,0,1,1,3008.3,2870c-307.94,345.69-748.55,544-1209,544"/><polyline class="cls-1" points="1194.01 1125.94 1221.61 1175.23 1276.94 1164.38 1238.53 1205.75 1266.06 1255.17 1214.78 1231.38 1176.37 1272.82 1183.07 1216.72 1131.86 1192.94 1187.26 1182"/><polyline class="cls-1" points="2126.87 941.98 2120.1 998.13 2064.64 1008.99 2115.92 1032.76 2109.22 1088.92 2147.62 1047.52 2198.91 1071.21 2171.37 1021.92 2209.72 980.39 2154.33 991.37"/><polyline class="cls-1" points="1389.71 1011.97 1425.87 1076.86 1498.64 1062.38 1448.23 1116.79 1484.38 1181.7 1416.98 1150.42 1366.56 1204.95 1375.39 1131.25 1308.06 1100.01 1380.82 1085.67"/><polyline class="cls-1" points="1902.51 910.9 1893.68 984.61 1820.84 998.93 1888.18 1030.11 1879.36 1103.78 1929.85 1049.36 1997.18 1080.53 1961.01 1015.75 2011.44 961.36 1938.66 975.68"/><polyline class="cls-1" points="1635.23 892.55 1682.46 977.21 1777.53 958.56 1711.66 1029.68 1758.82 1114.33 1670.86 1073.53 1604.92 1144.68 1616.45 1048.42 1528.49 1007.66 1623.62 988.92"/><polygon points="807.97 840.03 941.71 972.11 994.5 918.67 1032.26 955.95 935.44 1053.98 763.95 884.61 807.97 840.03"/><rect x="971.19" y="706.48" width="62.66" height="241.03" transform="translate(-296.93 806.95) rotate(-38.64)"/><path d="M1202.31,647.44q-32.28-11.62-59.71,4.78A65.9,65.9,0,0,0,1122.86,670a62.46,62.46,0,0,0-11.48,47.46,68.68,68.68,0,0,0,9.2,25,69.53,69.53,0,0,0,17.87,20.23,64,64,0,0,0,72.11,3.82q25.8-15.42,33.25-49.68l38.06,63.66-4.34,5.2a187.19,187.19,0,0,1-19.19,20.23,130.53,130.53,0,0,1-19.9,14.68,125.74,125.74,0,0,1-94,14.33,132,132,0,0,1-44.84-20.49,123.88,123.88,0,0,1-35.38-38.62q-14.26-23.88-17.25-49.1a127.31,127.31,0,0,1,61.22-124.68A132.16,132.16,0,0,1,1134,590.15a172.35,172.35,0,0,1,29.94-6.92Z"/><path d="M1263.62,658a124.19,124.19,0,0,1,38-136.63q20.1-17,48-26.35,27.59-9.24,54-7.82a127.07,127.07,0,0,1,48.74,12.16A123.47,123.47,0,0,1,1491.43,529a131.2,131.2,0,0,1,31.78,94.88A123.46,123.46,0,0,1,1509.84,671,127,127,0,0,1,1478.26,710q-20.25,17.07-47.83,26.31-27.89,9.35-54.17,7.86A124.67,124.67,0,0,1,1263.62,658m62.14-20.82a64.1,64.1,0,0,0,13.58,23.44,66.35,66.35,0,0,0,45.52,21.66,69.7,69.7,0,0,0,65.6-36.64,65.83,65.83,0,0,0,7.4-24.73A67.55,67.55,0,0,0,1441,570.63a66.09,66.09,0,0,0-20.8-15.28,68.45,68.45,0,0,0-25-6.28,71,71,0,0,0-49.41,16.55,66.36,66.36,0,0,0-23.28,44.72,64.19,64.19,0,0,0,3.28,26.88"/><path d="M1783,665.52l-77.57,8.13-69.12-86,9.67,92.2-62.32,6.53L1558.5,446.69l97-10.16q20-2.1,35.59,2.22a66.21,66.21,0,0,1,43.41,35.46,82.54,82.54,0,0,1,7.93,28.1q2.86,27.34-8.55,45.74t-36.53,27.13ZM1632,547.3l11.77-1.23q18.43-1.94,27.49-10.59t7.56-23q-1.5-14.31-12.15-20.91t-29.1-4.66l-11.76,1.23Z"/><polygon points="1949.15 490.38 1874.82 485.6 1872.23 525.79 1942.41 530.31 1939.01 583.26 1868.83 578.75 1866.16 620.22 1940.49 625 1937.08 677.96 1800.23 669.16 1815.69 428.62 1952.55 437.42 1949.15 490.38"/><path d="M2167.78,728.3l-75.87-18.09-36.66-104-21.49,90.17-61-14.52,55.88-234.47L2123.53,470q19.59,4.66,32.84,13.9a66.24,66.24,0,0,1,29.17,47.87,82.46,82.46,0,0,1-1.85,29.14q-6.37,26.75-23.24,40.3T2117,614.65ZM2064.66,566.68l11.51,2.75q18,4.29,29.45-.87t14.75-19.16q3.35-14-4.52-23.75T2090,511.59l-11.5-2.75Z"/><rect x="2136.57" y="607.46" width="241.03" height="62.65" transform="translate(833.2 2502.93) rotate(-68.43)"/><path d="M2430.7,814.57l-77.18-45.34-33.61,28.82L2262.3,764.2l201.21-161.34,59,34.65-43,254.3L2421.89,858Zm9.79-49.49,16.4-83.43L2392,736.58Z"/><path d="M1027.72,1657.51q-51-42.67-111.86-31.13a127.34,127.34,0,0,0-47.77,19.16,122.82,122.82,0,0,0-34.24,33.93,124.06,124.06,0,0,0-18.31,44.78,133.28,133.28,0,0,0,0,51.71q5.2,27.39,19,48.74a123.9,123.9,0,0,0,78.14,54.54,123.29,123.29,0,0,0,50.55.51q57.23-10.86,93.65-68.22l26.79,141.23-11.37,6.57a358.73,358.73,0,0,1-48.42,24,251.55,251.55,0,0,1-46,13.46,243.84,243.84,0,0,1-180.71-36.67q-39.36-26.27-67.93-67.21T690.66,1799q-10-53,1.36-100.86T730.55,1612a248.44,248.44,0,0,1,156.06-99.93,256.91,256.91,0,0,1,55-4.44,334.9,334.9,0,0,1,59.11,7.39Z"/><polygon points="1354.43 1541.29 1212.59 1568.19 1227.14 1644.9 1361.07 1619.49 1380.24 1720.55 1246.31 1745.96 1261.32 1825.1 1403.17 1798.19 1422.34 1899.24 1161.18 1948.79 1074.09 1489.78 1335.26 1440.23 1354.43 1541.29"/><path d="M1889.87,1810.54l-148.54,28.19-147.33-155,33.49,176.54L1508.17,1883l-87.08-459,185.68-35.23q38.34-7.28,69.1-1.44t53,21.79a132.2,132.2,0,0,1,36.55,39.74,159.9,159.9,0,0,1,19.83,53q9.93,52.37-9.15,89.71t-66.2,58.29Zm-310.54-204.08,22.52-4.27q35.31-6.69,51.41-24.89t10.91-45.58q-5.2-27.4-26.84-38.43t-57-4.33l-22.52,4.27Z"/><path d="M1852.71,1342.06l176.54-33.49a212,212,0,0,1,91.55,2.18,244.2,244.2,0,0,1,81.36,36.6,237.46,237.46,0,0,1,62.26,63.87,229.28,229.28,0,0,1,33.34,174,236.41,236.41,0,0,1-34.18,82.48,241.11,241.11,0,0,1-62.25,64.15q-37.51,26.68-85,35.68l-176.55,33.49Zm187.23,335.32,27.39-5.2q31.05-5.88,53.55-20.25t36-34.58a116.58,116.58,0,0,0,17.89-45.33q4.38-25.11-.93-53.12a143.64,143.64,0,0,0-18.83-49.4,119.86,119.86,0,0,0-33.61-35.88q-20-13.86-46.18-19t-56.63.65l-27.4,5.2Z"/><path d="M2664.93,1580.88l-170.46,32.34-12.26,85L2355,1722.31l87.64-492.16,130.27-24.72,261.81,425.87-127.24,24.14Zm-48.87-84.7-82.56-142.64-24.58,163Z"/><polygon points="872.66 2160.34 730.82 2187.25 745.37 2263.96 879.3 2238.55 898.48 2339.61 764.54 2365.01 779.56 2444.15 921.4 2417.24 940.58 2518.3 679.41 2567.85 592.33 2108.83 853.49 2059.29 872.66 2160.34"/><polygon points="1299.23 2158.25 1471.52 2125.57 1437.91 1948.41 1557.23 1925.78 1644.31 2384.79 1524.99 2407.43 1489.07 2218.1 1316.79 2250.78 1352.71 2440.11 1233.39 2462.75 1146.31 2003.74 1265.63 1981.1 1299.23 2158.25"/><path d="M1772.73,1884.89l87.08,459-119.32,22.63-87.08-459Zm305-57.86,65.72,346.39a304.84,304.84,0,0,1,4.91,37.54q1.09,17.46-1.45,30.55-5.52,27.54-25.58,54.68-35.24,47-98.54,59-73.65,14-132.74-44.82l62.79-94.53q7,20.13,19.63,30.33t27.88,7.33q33.47-6.36,23.43-59.32l-65.37-344.56Z"/><path d="M2196.75,2042.22q-9.7-51.15.8-98.86a241.78,241.78,0,0,1,37.74-86.94q27.24-39.23,70.3-66.63t99-38q55.4-10.5,105.8-.83t90.42,36.14a239.68,239.68,0,0,1,67.27,67q27.24,40.56,36.94,91.69t-.79,98.85a239.7,239.7,0,0,1-38.05,87q-27.55,39.28-70.91,66.75t-98.75,38q-56,10.62-106.1.89T2300.66,2201a241.74,241.74,0,0,1-67-67.08q-27.25-40.54-36.95-91.69m124.8-23.68q5.19,27.39,19.93,48.57a128.71,128.71,0,0,0,81.74,53.55,137.61,137.61,0,0,0,99.24-18.83,132.49,132.49,0,0,0,36.37-34.33,127.56,127.56,0,0,0,20.68-45.55q6-25.1.77-52.49a124.68,124.68,0,0,0-19.94-48.57,128,128,0,0,0-35.93-34.81,136.26,136.26,0,0,0-145.65.2,128.63,128.63,0,0,0-56.45,79.77q-6,25.11-.76,52.49"/><path d="M3011.34,1771.63q-22.5-12.12-43.41-16.05t-39.19-.44q-23.14,4.38-35.67,18.11t-9.18,31.39q2.31,12.18,11.12,18.7a64.58,64.58,0,0,0,21.77,10.06,166.08,166.08,0,0,0,28.7,5q15.72,1.43,31.25,3.52,62.14,8.41,95.41,35.83t43.2,79.78q6.7,35.31.26,66.18a135.74,135.74,0,0,1-25.4,55.58q-19,24.73-50,42.28t-73,25.53q-87.06,16.51-171.14-21.14L2828.89,2020q31.29,18.68,59.67,25.27t53.94,1.74q29.22-5.54,41-21.65t8.54-33.15A42,42,0,0,0,2985,1975q-5.1-6.91-14.84-11.7t-24.47-7.65q-14.73-2.88-35.49-5.88-24.52-2.92-48.41-7.53a145.27,145.27,0,0,1-44-15.93,110.88,110.88,0,0,1-35-31.52q-14.86-20.19-21.34-54.29t-.46-63.93a139.89,139.89,0,0,1,22.65-53.49q16.63-23.64,44.09-40.21t64-23.49q34.09-6.46,73-4.08a320.84,320.84,0,0,1,76.48,14.19Z"/><path d="M1074,2736.22l57.91,38.48a82,82,0,0,1,24.74,25.36,94.56,94.56,0,0,1,12.62,32.14,91.87,91.87,0,0,1,0,34.51,88.69,88.69,0,0,1-37.85,57.17,91.34,91.34,0,0,1-31.76,13.58,93.16,93.16,0,0,1-34.58.92,82.53,82.53,0,0,1-33.17-13.11l-57.91-38.48Zm-38.88,143.42,9,6a58.45,58.45,0,0,0,20.3,8.88,46.82,46.82,0,0,0,19.32.17,45.37,45.37,0,0,0,17.21-7.71A57.16,57.16,0,0,0,1115,2872a55.62,55.62,0,0,0,8.15-18.76,46.33,46.33,0,0,0,.41-19,46.87,46.87,0,0,0-7.64-17.75,58,58,0,0,0-15.85-15.13l-9-6Z"/><rect x="1115.45" y="2899.91" width="180.78" height="46.99" transform="translate(-1944.45 2647.68) rotate(-62.58)"/><path d="M1370.39,2948.45a58.21,58.21,0,0,0-10.77-14.3,40.65,40.65,0,0,0-12.67-8.34q-8.45-3.41-15.39-1.56a13.46,13.46,0,0,0-9.56,8.29,11.26,11.26,0,0,0-.29,8.42,25.19,25.19,0,0,0,5,7.83,64.86,64.86,0,0,0,8.31,7.61q4.82,3.76,9.43,7.69,18.48,15.73,23.57,31.62t-2.62,35a65,65,0,0,1-13.76,21.6,52.48,52.48,0,0,1-19.89,12.78,62.89,62.89,0,0,1-25.12,3.31,91.85,91.85,0,0,1-29.12-7q-31.8-12.82-51.29-42.67l32.85-27.59a81.71,81.71,0,0,0,14.14,20.7,50,50,0,0,0,17.19,11.85q10.68,4.31,17.87,1.52t9.71-9a16.16,16.16,0,0,0,1.32-7.09,15.28,15.28,0,0,0-2.39-6.91,38.54,38.54,0,0,0-6.36-7.61q-4.2-4-10.32-9.34-7.38-6.08-14.19-12.57a55.94,55.94,0,0,1-11-14.4,42.8,42.8,0,0,1-4.8-17.57q-.62-9.69,4.41-22.14a64,64,0,0,1,13.22-20.91,54.08,54.08,0,0,1,18.56-12.67,55.46,55.46,0,0,1,22.76-3.88,74.54,74.54,0,0,1,25.74,5.74,113.82,113.82,0,0,1,24.62,13.94,124.36,124.36,0,0,1,21.93,20.61Z"/><polygon points="1488.99 2977.97 1451.39 3113.85 1406.1 3101.31 1443.7 2965.44 1406.49 2955.15 1417.11 2916.79 1536.8 2949.91 1526.19 2988.27 1488.99 2977.97"/><path d="M1670.12,3154l-57.84-8.78-33.88-75.47L1568,3138.47l-46.46-7.06,27.14-178.73,72.29,11q14.94,2.28,25.41,8.35a49.58,49.58,0,0,1,24.79,34,61.67,61.67,0,0,1,.44,21.89q-3.09,20.38-14.86,31.57t-31.65,12.77ZM1583,3039.62l8.77,1.33q13.74,2.1,22-2.48t9.83-15.24q1.62-10.67-4.87-17.47t-20.23-8.9l-8.77-1.33Z"/><rect x="1638.36" y="3041.3" width="180.77" height="46.99" transform="translate(-1416.45 4642.54) rotate(-87.21)"/><path d="M1787.11,2977.64,1857,2974q24.9-1.27,38.44,10t14.71,33.82q.69,13.65-3.75,22.88a41.28,41.28,0,0,1-14.18,16,57.09,57.09,0,0,1,17.42,5,37.21,37.21,0,0,1,12,9.1,36.31,36.31,0,0,1,7,12.61,59.52,59.52,0,0,1,2.71,15.22,54.3,54.3,0,0,1-3.28,22.74,45.72,45.72,0,0,1-11.6,17.16,53.29,53.29,0,0,1-19,11.06,92.32,92.32,0,0,1-25.69,4.68l-75.42,3.88Zm50.58,68.45,8.61-.44q22-1.12,21.13-18.61t-22.92-16.34l-8.62.44Zm3.76,73.27,10.3-.53q17.71-.9,25.15-5.85t6.91-15q-.52-10-8.42-14.21t-25.61-3.25l-10.3.53Z"/><path d="M1988.51,2959.7l19,96.45q1.53,7.77,3.71,15.77a44.23,44.23,0,0,0,6.42,14,25,25,0,0,0,11.4,8.88q7.17,2.86,18.69.6t17-7.61a26.12,26.12,0,0,0,7.19-12.54,42.76,42.76,0,0,0,.75-15.42q-1-8.23-2.54-16l-19-96.45,45.87-9,20.23,102.8q8.16,41.4-7,64.18t-54.48,30.52q-39.28,7.72-62.09-7.57t-30.95-56.71l-20.23-102.8Z"/><rect x="2151.1" y="2917.03" width="46.99" height="180.77" transform="translate(-799.54 787.52) rotate(-17.39)"/><path d="M2199,2906.32l63.69-27.88a82.16,82.16,0,0,1,34.72-7.08,94.47,94.47,0,0,1,33.85,6.77,91.85,91.85,0,0,1,29,18.72,88.69,88.69,0,0,1,27.61,62.77,91.46,91.46,0,0,1-5.77,34.06,93.21,93.21,0,0,1-17.94,29.57,82.46,82.46,0,0,1-29,20.8l-63.7,27.88Zm99.57,110.3,9.89-4.32a58.34,58.34,0,0,0,18.44-12.26,46.58,46.58,0,0,0,10.6-16.16,45.05,45.05,0,0,0,2.83-18.64,56.91,56.91,0,0,0-4.94-19.95,55.49,55.49,0,0,0-11.37-17,45.1,45.1,0,0,0-34.83-13.8,57.7,57.7,0,0,0-21.3,5.13l-9.89,4.33Z"/><path d="M2402.9,2915a93.13,93.13,0,0,1,1.89-106.34,114.87,114.87,0,0,1,67.62-44,95.29,95.29,0,0,1,37.67-.34,92.72,92.72,0,0,1,33.93,14.11,98.45,98.45,0,0,1,40.93,62.89,93,93,0,0,1-.84,36.74,95.19,95.19,0,0,1-15.58,34.3,114.93,114.93,0,0,1-67.62,44,93.51,93.51,0,0,1-98-41.36m41.2-26.81a48.15,48.15,0,0,0,14.27,14.46,49.72,49.72,0,0,0,37.13,7.16,52.3,52.3,0,0,0,40.73-38.94,49.34,49.34,0,0,0,.71-19.35,50.59,50.59,0,0,0-21.7-33.36,49.48,49.48,0,0,0-18-7.18,51.22,51.22,0,0,0-19.35.15,53.17,53.17,0,0,0-32.76,21.32,49.82,49.82,0,0,0-8.49,36.84,48.19,48.19,0,0,0,7.44,18.9"/><path d="M2767.08,2750.45l-43.47,39.14-79.85-21.67,46.53,51.67L2655.37,2851l-121-134.34,54.34-48.94q11.24-10.1,22.57-14.35a49.72,49.72,0,0,1,42,2.37,62.16,62.16,0,0,1,17.2,13.55q13.8,15.33,15,31.51t-10.19,32.57Zm-143.69-5.16,6.59-5.93q10.33-9.3,12-18.56t-5.55-17.26q-7.21-8-16.59-7.32t-19.71,10l-6.59,5.93Z"/><path d="M2837.84,2619.5l-43,51.59,17.23,28.39L2780.06,2738l-94.9-168.55L2718,2530l183,62.78-32.07,38.51Zm-35.43-13.28-59.75-22.29,32.75,54.72Z"/><path d="M966.22,2773.4a32.7,32.7,0,1,1,0-46.25,32.69,32.69,0,0,1,0,46.25"/><path d="M2886.13,2503.53a32.7,32.7,0,1,1,0-46.25,32.71,32.71,0,0,1,0,46.25"/></svg>